<svg height="512" viewBox="0 0 192 192" width="512" xmlns="http://www.w3.org/2000/svg" xmlns:xlink="http://www.w3.org/1999/xlink"><linearGradient id="New_Gradient_Swatch_1" gradientUnits="userSpaceOnUse" x1="79.565" x2="144.49" y1="95.447" y2="30.522"><stop offset="0" stop-color="#ff85a6"/><stop offset="1" stop-color="#d0b3e4"/></linearGradient><g id="_09-fire" data-name="09-fire"><path d="m152.544 38.737a4.016 4.016 0 0 0 -5.49-1.37l-11.054 6.633-20.445-41.741a4 4 0 0 0 -7.17-.03l-20.385 40.771-11.608-5.489a3.984 3.984 0 0 0 -5.11 1.508c-4.382 7.218-7.282 14.462-7.282 20.981a48 48 0 0 0 96 0c0-6.6-2.982-13.952-7.456-21.263z" fill="url(#New_Gradient_Swatch_1)"/><path d="m112 91a16 16 0 0 1 -16-16c0-8.837 16-25 16-25s16 16.163 16 25a16 16 0 0 1 -16 16z" fill="#fff"/><path d="m0 176h39.351a4 4 0 0 1 1.265.205l46.768 15.595a4 4 0 0 0 1.265.205h61.694a4 4 0 0 0 2.829-1.172l35.028-35.033a4 4 0 0 0 -1.755-6.688c-3.998-1.106-10.145-1.262-18.445 2.888a106.7 106.7 0 0 0 -22.9 14.978 4.006 4.006 0 0 1 -2.67 1.022h-28.773a4 4 0 0 1 -2.829-1.172l-22.828-22.828h24c17.107 0 22.02-12.193 23.431-19.2a4 4 0 0 0 -3.921-4.8h-59.018a4.019 4.019 0 0 0 -.97.119l-31.044 7.762a4.019 4.019 0 0 1 -.97.119h-39.508" fill="#ffcedb"/><g fill="#ffb6ca"><path d="m111 135h-24l1 9h24c17.107 0 22.02-12.193 23.431-19.2a4 4 0 0 0 -2.29-4.444c-2.5 6.744-8.366 14.644-22.141 14.644z"/><path d="m186.441 149.116c-.4-.11-.821-.207-1.261-.3l-33.008 33.008a4 4 0 0 1 -2.829 1.176h-61.694a4 4 0 0 1 -1.265-.205l-46.768-15.59a4 4 0 0 0 -1.265-.205h-38.351v9h39.351a4 4 0 0 1 1.265.205l46.768 15.595a4 4 0 0 0 1.265.205h61.694a4 4 0 0 0 2.829-1.172l35.028-35.033a4 4 0 0 0 -1.759-6.684z"/></g></g></svg>