<svg width="1132" height="740" viewBox="0 0 1132 740" fill="none" xmlns="http://www.w3.org/2000/svg">
<g id="undraw_witch_7uk7 1" clip-path="url(#clip0)">
<path id="Vector" d="M627.14 135.83C557.94 133.42 492.04 111.08 429.14 86.64C366.24 62.2 303.79 35.12 236.29 22.17C192.85 13.84 143.17 12.67 108.17 35.96C74.49 58.37 63.6 97.06 57.75 132.96C53.35 159.96 50.75 188.39 62.82 213.68C71.2 231.23 86.07 245.99 96.35 262.8C132.13 321.31 106.84 393.46 68.06 450.59C49.88 477.39 28.79 502.95 14.79 531.48C0.789988 560.01 -5.74001 592.69 6.53999 621.79C18.71 650.64 47.72 672.3 79.14 687.54C142.96 718.49 218.14 727.35 291.5 732.36C453.83 743.47 617.02 738.66 779.78 733.85C840.02 732.06 900.52 730.26 959.78 720.94C992.69 715.77 1026.66 707.56 1050.55 687.74C1080.88 662.58 1088.39 619.98 1068.07 588.44C1033.93 535.57 939.68 522.38 915.86 465.57C902.79 434.33 916.21 399.57 935.27 370.57C976.15 308.38 1044.68 253.82 1048.27 182.74C1050.75 133.92 1017.8 85.02 966.87 61.92C913.48 37.71 839.44 40.76 800.05 80.84C759.51 122.07 688.24 137.95 627.14 135.83Z" fill="url(#paint0_linear)"/>
<g id="Other Sheet">
<path id="Vector_2" d="M135.5 444.57C134.05 439.76 129.21 435.57 124.32 436.7C121.07 437.44 117.19 440.12 114.98 437.61C114.501 436.963 114.136 436.24 113.9 435.47C112.803 432.727 110.93 430.364 108.51 428.67C107.104 427.559 105.351 426.982 103.56 427.04C100.56 427.33 98.47 430.2 97.56 433.04C96.65 435.88 96.42 439.04 95.14 441.72C93.05 446.17 88.14 448.97 83.21 449.11C80.7399 449.107 78.2958 448.606 76.023 447.639C73.7502 446.672 71.6951 445.258 69.98 443.48C66.92 440.48 64.13 436.2 59.82 436.07C57.69 436.01 55.7 437.07 53.61 437.46C47.86 438.66 42.28 435.34 36.8 433.2C31.7545 431.229 26.3869 430.212 20.97 430.2C19.6055 430.128 18.2415 430.35 16.97 430.85C13.41 432.49 12.77 437.17 12.61 441.09C15.53 444.82 22.61 443.27 24.92 447.44C25.66 448.83 25.62 450.44 25.78 452.04C26.37 457.94 30.09 463.19 34.78 466.82C39.47 470.45 45.09 472.67 50.7 474.6C54.18 475.79 57.78 476.94 60.7 479.25C63.62 481.56 65.59 485.34 64.7 488.91C63.48 493.73 57.76 495.91 52.79 495.91C49.13 495.91 45.22 495.26 42 496.98C38.56 498.81 36.9 502.98 37 506.89C37.1 510.8 38.55 514.5 40 518.11L43.56 526.92C43.9576 528.102 44.5751 529.198 45.38 530.15C46.3495 531.063 47.5163 531.741 48.79 532.13C51.7447 533.123 54.8183 533.718 57.93 533.9C62.55 534.17 67.67 533.68 71.29 536.56C76.44 540.66 75.38 548.93 79.04 554.4C81.55 558.18 86.11 560.19 90.62 560.69C95.13 561.19 99.67 560.37 104.13 559.56C113.13 557.91 122.38 556.2 130.51 551.9L132.37 478.84C132.52 472.84 132.09 466.13 133.8 460.37C135.37 455.04 137.23 450.31 135.5 444.57Z" fill="#F86D70"/>
<path id="Vector_3" d="M121.32 501.11L122.47 500.32C118.63 494.71 112.69 491.14 106.95 487.69C104.65 486.3 102.26 484.87 100.06 483.33C96.8545 480.996 93.7736 478.496 90.83 475.84C89.65 474.84 88.44 473.76 87.22 472.74C66.2757 455.243 40.828 443.998 13.79 440.29L13.61 441.67C40.3868 445.336 65.5893 456.472 86.33 473.8C87.54 474.8 88.75 475.87 89.93 476.89C92.9092 479.578 96.0267 482.108 99.27 484.47C101.51 486.03 103.92 487.47 106.27 488.88C111.85 492.25 117.65 495.75 121.32 501.11Z" fill="#CE6270"/>
<path id="Vector_4" d="M119.14 525.57L119.95 524.44C112.685 519.233 104.176 516.033 95.28 515.16C91.7641 514.879 88.236 514.782 84.71 514.87C79.54 514.87 74.2 514.94 69.15 513.74C67.0029 513.186 64.8866 512.518 62.81 511.74C59.9385 510.652 56.9726 509.832 53.95 509.29C52.1027 509.045 50.2431 508.905 48.38 508.87C44.63 508.73 41.09 508.59 37.99 506.87L37.33 508.09C40.71 509.93 44.58 510.09 48.33 510.22C50.1425 510.257 51.9517 510.391 53.75 510.62C56.6843 511.154 59.5631 511.958 62.35 513.02C64.4742 513.798 66.6371 514.465 68.83 515.02C74.05 516.25 79.47 516.22 84.72 516.18C88.196 516.097 91.674 516.194 95.14 516.47C103.802 517.336 112.082 520.475 119.14 525.57V525.57Z" fill="#CE6270"/>
<path id="Vector_5" d="M115.68 499.99L116.82 499.19C109.448 488.503 105.37 475.89 105.09 462.91C104.88 451.81 107.49 440.82 110 430.19L108.65 429.87C106.11 440.58 103.49 451.66 103.65 462.94C103.949 476.201 108.132 489.083 115.68 499.99V499.99Z" fill="#CE6270"/>
<path id="Vector_6" d="M66.14 465.22C68.92 465.22 71.66 465.03 74.25 464.85L74.15 463.46C68.29 463.86 61.66 464.32 55.7 462.46C55.21 462.31 54.7 462.14 54.21 461.97C52.12 461.26 49.94 460.52 47.67 460.87L47.89 462.25C49.82 461.94 51.74 462.6 53.76 463.25C54.27 463.42 54.76 463.6 55.29 463.75C58.8124 464.782 62.47 465.277 66.14 465.22Z" fill="#CE6270"/>
<path id="Vector_7" d="M41.44 518.82C43.07 517.35 45.65 517.41 47.93 517.46C53.11 517.57 60.79 517.39 67.71 514.46L67.18 513.18C60.5 515.96 53.01 516.18 47.96 516.03C45.55 516.03 42.55 515.91 40.51 517.74L41.44 518.82Z" fill="#CE6270"/>
<path id="Vector_8" d="M75.79 543.64C80.63 541.7 85.9 540.87 90.99 540.07C95.7161 539.168 100.519 538.729 105.33 538.76C110.078 538.8 114.711 540.225 118.66 542.86L119.47 541.73C115.299 538.933 110.402 537.417 105.38 537.37C100.482 537.338 95.5919 537.784 90.78 538.7C85.61 539.51 80.26 540.35 75.27 542.35L75.79 543.64Z" fill="#CE6270"/>
</g>
<g id="Big Pumpkin">
<path id="Vector_9" d="M113.48 523.9C113.48 541.06 129.48 603.79 149.57 621.54C169.66 639.29 193.95 636.92 193.95 636.92C212 652.92 225.65 653.92 232.05 653.2C233.417 653.074 234.761 652.772 236.05 652.3C236.05 652.3 240.53 653.92 245.88 655.52C252.65 657.52 260.88 659.52 263.15 658.22C267.29 655.86 272.62 658.22 272.62 658.22C275.01 663.882 278.732 668.883 283.47 672.799C288.207 676.714 293.819 679.428 299.83 680.71C310.49 694.91 327.05 694.32 327.05 694.32C347.17 706.15 354.87 697.32 354.87 697.32C367.87 702.05 390.37 694.95 390.37 694.95C420.55 686.07 449.54 625.13 449.54 625.13C449.54 625.13 457.23 607.97 461.97 603.23C466.71 598.49 473.8 585.48 476.17 578.38C478.54 571.28 482.09 546.43 482.09 546.43C493.92 523.94 490.96 487.26 490.96 487.26C472.05 396.1 396.31 379.57 396.31 379.57C396.16 377.88 394.63 376.34 392.46 374.99C386.32 371.18 375.01 368.92 375.01 368.92C373.24 365.92 359.01 358.27 359.01 358.27C359.01 358.27 283.86 361.82 273.8 358.27C263.74 354.72 244.8 365.96 244.8 365.96C235.8 363.1 217.1 371.3 206.48 376.61C201.77 378.97 198.64 380.76 198.64 380.76C196.64 381.427 194.697 382.147 192.81 382.92C102.69 418.21 113.48 507.1 113.48 523.9Z" fill="#8D68AD"/>
<path id="Vector_10" opacity="0.1" d="M451.79 544.01C452.16 548.07 452.52 552.23 451.48 556.17C450.65 559.28 448.96 562.37 449.6 565.52C446.67 556.43 447.6 546.63 447.11 537.1C446.11 517.39 438.27 497.77 440.19 477.94C445.31 486.18 446.48 500.04 447.98 509.83C449.69 521.16 450.73 532.57 451.79 544.01Z" fill="black"/>
<path id="Vector_11" opacity="0.1" d="M167.03 490.42C165.25 457.24 214.36 400.24 221.46 393.73C228.56 387.22 240.99 399.35 240.99 399.35C240.99 399.35 215.55 454.35 214.99 463.25C214.43 472.15 218.55 469.76 218.55 469.76C224.16 421.24 245.76 400.83 245.76 400.83C259.96 397.83 275.64 401.12 275.64 401.12L269.73 410L275.05 408.81L272.98 424.5H274.46C274.46 424.5 277.46 423.02 279.46 411.18C281.46 399.34 296.33 405.26 296.33 405.26L302.2 411.48C307.2 401.12 317.04 407.04 317.04 407.04C317.04 407.04 317.92 408.81 323.84 417.18C329.76 425.55 332.12 453.79 332.12 453.79C334.19 456.15 337.12 453.79 337.12 453.79C337.12 453.79 328.84 413.79 326.18 408.22C323.52 402.65 346.3 404.67 346.3 404.67C346.3 404.67 357.83 427.16 359.3 425.97C360.77 424.78 352.79 405.57 352.79 405.57C356.04 394.62 369.35 409.42 369.35 409.42C369.35 409.42 385.35 439.89 386.51 439.3C387.67 438.71 374.38 412.37 374.38 412.37L372.31 407.94C372.31 407.94 359.88 402.02 375.57 396.1C391.26 390.18 416.04 421.39 416.39 421.84C411.06 406.75 388.88 395.21 388.88 395.21C388.88 395.21 386.81 394.03 388.88 390.48C390.95 386.93 396.31 379.57 396.31 379.57C396.16 377.88 394.63 376.34 392.46 374.99C391.477 376.086 390.679 377.336 390.1 378.69C388.5 382.83 382.41 389.34 382.41 389.34L378.56 385.79L376.2 387.27L376.49 392.27C371.76 391.08 363.18 397.27 363.18 397.27L352.53 391.06L351.34 393.13L356.07 398.13C355.91 397.99 353.63 396.18 351.34 399.32C349.05 402.46 339.79 392.57 339.79 392.57L338.01 393.46L342.15 398.78C338.31 398.49 322.03 402.93 322.03 402.93L319.37 398.19H315.53V402.93L283.53 398.19L282.05 393.46L276.43 398.78L254.83 394.05C254.83 394.05 256.61 385.77 245.37 391.98C234.13 398.19 230.28 384.88 228.5 385.47C226.72 386.06 221.7 388.13 221.7 388.13C221.7 388.13 219.92 384.29 217.56 384.59C215.2 384.89 209.27 381.33 209.27 381.33L206.52 376.57C201.81 378.93 198.68 380.72 198.68 380.72C196.68 381.387 194.737 382.107 192.85 382.88C193.111 383.259 193.449 383.579 193.842 383.818C194.235 384.058 194.674 384.212 195.13 384.27C200.13 384.57 215.25 387.27 215.25 387.27L216.73 391.41C175.61 415.08 163.73 490.47 163.73 490.47L167.03 490.42Z" fill="black"/>
<path id="Vector_12" opacity="0.1" d="M213.18 566.89C213.223 574.93 214.326 582.929 216.46 590.68C217.58 594.48 219.03 598.18 220.18 601.97C223.79 613.87 224.46 626.82 230.47 637.71C232.1 640.71 234.17 643.71 234.1 647.03C233.917 649.221 233.215 651.336 232.05 653.2C233.417 653.074 234.761 652.772 236.05 652.3C236.05 652.3 240.53 653.92 245.88 655.52C243.991 650.43 241.485 645.591 238.42 641.11C236.763 638.923 235.292 636.601 234.02 634.17C233.248 632.365 232.629 630.498 232.17 628.59C227.277 610.59 222.383 592.613 217.49 574.66C215.663 568.891 214.984 562.82 215.49 556.79C215.57 553.86 216.89 547.79 214.97 545.51C212.65 547.19 213.44 552.51 213.34 555.11C213.18 559.04 213.1 562.97 213.18 566.89Z" fill="black"/>
<path id="Vector_13" d="M265.05 346.41C265.477 349.984 266.217 353.515 267.26 356.96C269.48 365.39 268.5 379.53 278.78 382.02C292.78 385.42 308 386.32 322.4 386.44C326.28 386.44 330.25 386.39 333.88 385.04C330.801 383.123 328.148 380.595 326.084 377.613C324.02 374.631 322.589 371.257 321.88 367.7C321.37 365.03 321.27 362.31 320.88 359.63C320.2 355.18 318.64 350.93 317.55 346.56C316.388 341.579 315.569 336.524 315.1 331.43C313.471 316.296 312.699 301.081 312.79 285.86C312.79 280.3 313.02 274.54 315.38 269.5L315.75 268.74C316.336 267.713 316.755 266.599 316.99 265.44C317.079 264.317 316.903 263.189 316.476 262.146C316.049 261.104 315.382 260.177 314.53 259.44C312.801 257.972 310.809 256.845 308.66 256.12C303.4 254.07 297.47 252.3 294.41 247.54C293.41 246.03 292.64 244.13 290.93 243.59C290.423 243.443 289.888 243.414 289.368 243.506C288.848 243.598 288.356 243.808 287.93 244.12C286.829 244.896 285.889 245.877 285.16 247.01C278.41 256.885 273.817 268.071 271.68 279.84C270.92 284.06 270.48 288.32 270.03 292.58L265.47 336.58C265.025 339.837 264.885 343.127 265.05 346.41V346.41Z" fill="#322C35"/>
<path id="Vector_14" opacity="0.1" d="M287.92 244.08C288.08 249.08 289.92 255.17 290.29 258.08C290.369 259.366 290.731 260.62 291.35 261.75C293.57 265.18 298.92 263.97 302.58 265.75C303.74 266.33 304.73 267.22 305.91 267.75C307.414 268.312 309.015 268.574 310.62 268.52L315.73 268.67C316.316 267.643 316.735 266.529 316.97 265.37C317.059 264.247 316.883 263.119 316.456 262.076C316.029 261.034 315.362 260.107 314.51 259.37C312.781 257.902 310.789 256.775 308.64 256.05C303.38 254 297.45 252.23 294.39 247.47C293.39 245.96 292.62 244.06 290.91 243.52C290.402 243.379 289.868 243.356 289.35 243.453C288.832 243.55 288.342 243.764 287.92 244.08Z" fill="black"/>
<path id="Vector_15" opacity="0.1" d="M305.66 276.01L303.45 283.64C301.03 291.99 298.6 300.38 297.55 308.95C296.817 308.248 296.28 307.366 295.993 306.393C295.705 305.419 295.677 304.388 295.91 303.4C296.23 301.4 297.08 299.56 297.4 297.6C297.86 294.87 297.3 292.1 297.52 289.35C297.79 285.96 299.23 282.74 300.66 279.58C301.45 277.82 303.99 269.25 305.87 268.81C309.54 267.97 305.97 274.93 305.66 276.01Z" fill="black"/>
<path id="Vector_16" opacity="0.1" d="M294.29 274.28C294.01 275.69 293.93 277.13 293.79 278.56C293.226 284.181 291.771 289.676 289.48 294.84C289.495 291.284 289.806 287.735 290.41 284.23L291.54 276.42C291.82 274.42 291.97 266.64 294.94 266.42C298.49 266.21 294.59 272.74 294.29 274.28Z" fill="black"/>
<path id="Vector_17" opacity="0.1" d="M277.72 305.29C276.889 309.656 276.344 314.073 276.09 318.51C275.74 324.71 276.01 330.95 275.3 337.13C273.47 327.23 271.64 317.13 273.3 307.2C273.814 304.349 274.481 301.529 275.3 298.75C278.107 288.423 281.127 278.143 284.36 267.91C285.17 265.35 286.44 261.69 289.69 260.91C292.64 264.02 290.23 267.04 288.87 270.44C287.34 274.27 285.87 278.12 284.43 281.99C281.581 289.567 279.338 297.358 277.72 305.29V305.29Z" fill="black"/>
<path id="Vector_18" opacity="0.1" d="M299.64 369.31C299.628 372.815 300.086 376.306 301 379.69C302.001 382.476 303.345 385.126 305 387.58C302.679 387.351 300.381 386.929 298.13 386.32C297.621 386.203 297.156 385.943 296.79 385.57C296.512 385.181 296.339 384.726 296.29 384.25C294.47 374.81 292.843 365.33 291.41 355.81C290.901 353.061 290.71 350.263 290.84 347.47C291.1 344.41 292.24 340.08 294.54 337.87C298.06 334.49 298.46 339.57 298.6 342.6C298.96 351.57 299.28 360.42 299.64 369.31Z" fill="black"/>
<path id="Vector_19" opacity="0.1" d="M282.7 377.93C282.04 377.08 280.94 376.67 280.26 375.84C279.26 374.64 279.41 372.92 279.33 371.37C279.27 370.14 275.68 357.87 279.84 359.46C281.92 360.25 282.47 375.57 282.7 377.93Z" fill="black"/>
</g>
<g id="Sheet">
<path id="Vector_20" d="M367.31 294.96L339.51 304.15C337.149 304.841 334.867 305.776 332.7 306.94C330.929 308.034 329.279 309.315 327.78 310.76C318.47 319.35 311.2 330.56 309.06 343.04C306.68 356.91 310.7 370.99 314.67 384.49C314.827 385.288 315.205 386.026 315.76 386.62C316.76 387.48 318.19 387.32 319.46 387.09C324.42 386.21 329.333 385.103 334.2 383.77C336.813 383.123 339.355 382.218 341.79 381.07C344.207 379.789 346.463 378.224 348.51 376.41C363.69 363.47 372.36 344.66 380.34 326.41C381.723 323.479 382.831 320.426 383.65 317.29C385.05 311.1 384.15 304.65 383.25 298.36C382.76 295 382.98 289.69 381.25 286.84C377.251 290.531 372.493 293.303 367.31 294.96V294.96Z" fill="#F86D70"/>
<path id="Vector_21" d="M313.59 385.71L325.73 375.07C334.02 367.81 342.59 360.3 349.85 351.72C361.45 338.03 369.47 322.03 376.4 306.78C379.29 300.43 381.89 294.18 381.89 287.61H380.84C380.84 293.98 378.29 300.11 375.45 306.35C368.55 321.53 360.57 337.45 349.06 351.05C341.85 359.56 333.3 367.05 325.06 374.29L312.92 384.92L313.59 385.71Z" fill="#CE6270"/>
<path id="Vector_22" d="M346.41 354.88L350.27 341.12C350.75 339.42 351.27 337.65 351.59 335.87C352.065 333.173 352.3 330.439 352.29 327.7C352.369 318.883 351.056 310.108 348.4 301.7L347.4 302.02C350.027 310.327 351.323 318.998 351.24 327.71C351.256 330.392 351.029 333.069 350.56 335.71C350.23 337.44 349.74 339.18 349.27 340.87L345.4 354.57L346.41 354.88Z" fill="#CE6270"/>
<path id="Vector_23" d="M420.98 432.57C425.51 439.85 430.73 446.73 434.42 454.47C438.11 462.21 440.19 471.11 437.98 479.39C436.31 485.65 432.35 491.02 428.35 496.12C425.312 500.088 422.068 503.893 418.63 507.52C412.01 514.34 404.21 520.11 398.75 527.89C393.29 535.67 390.59 546.45 395.38 554.65C385.15 552.65 376.54 545.42 370.63 536.82C364.72 528.22 361.18 518.27 357.76 508.41C354.92 500.26 352.09 491.78 352.92 483.18C354 471.96 361.27 462.12 370.09 455.1C378.91 448.08 389.29 443.37 399.28 438.1C403.04 436.1 406.84 433.99 409.6 430.77C411.82 428.18 411.97 423.35 414.46 421.49C417.17 424.17 418.88 429.2 420.98 432.57Z" fill="#F86D70"/>
<path id="Vector_24" d="M393.59 553.78L394.21 552.94C388.71 548.85 387.1 541.45 385.93 534.22C384.68 526.53 383.47 518.72 382.34 511.02C380.569 502.962 381.266 494.557 384.34 486.9C387.34 477.27 390.29 468.69 395.34 461.19C397.57 458.011 399.981 454.963 402.56 452.06C404.84 449.39 407.21 446.62 409.27 443.68C412.93 438.45 416.94 430.5 415.2 422.31L414.2 422.52C415.86 430.35 411.98 438.02 408.43 443.08C406.43 445.98 404.05 448.73 401.78 451.39C399.179 454.324 396.746 457.403 394.49 460.61C389.37 468.23 386.42 476.88 383.37 486.61C380.259 494.419 379.562 502.981 381.37 511.19C382.5 518.9 383.71 526.71 384.96 534.4C386.11 541.83 387.79 549.46 393.59 553.78Z" fill="#CE6270"/>
<path id="Vector_25" d="M380.73 503.81C385.113 496.366 390.908 489.851 397.79 484.63C400.46 482.63 403.34 480.76 406.13 478.97C410.83 475.97 415.7 472.82 419.73 468.78C425.494 462.996 429.371 455.601 430.85 447.57L429.85 447.39C428.411 455.198 424.646 462.389 419.05 468.02C415.05 471.97 410.28 475.02 405.62 478.02C402.82 479.82 399.92 481.68 397.22 483.72C390.189 489.04 384.268 495.685 379.79 503.28L380.73 503.81Z" fill="#CE6270"/>
<path id="Vector_26" d="M390.06 470.96H391.06C390.95 468.15 389.2 465.91 387.5 463.74C386.11 461.96 384.67 460.12 384.21 458.01C383.931 456.085 384.039 454.123 384.53 452.24C384.94 450.05 385.36 447.8 384.72 445.61L383.72 445.9C384.29 447.9 383.91 449.9 383.51 452.05C382.99 454.068 382.881 456.169 383.19 458.23C383.7 460.58 385.19 462.51 386.68 464.39C388.39 466.47 389.96 468.49 390.06 470.96Z" fill="#CE6270"/>
<path id="Vector_27" d="M384.41 523.72L385.18 523.02C382.665 520.219 379.814 517.74 376.69 515.64C375.94 515.14 375.16 514.64 374.41 514.17C371.74 512.49 368.97 510.74 367.13 508.17C365.84 506.214 364.83 504.087 364.13 501.85C364.01 501.52 363.88 501.19 363.76 500.85C361.379 494.438 358.233 488.338 354.39 482.68L353.52 483.26C357.322 488.864 360.432 494.908 362.78 501.26C362.91 501.59 363.03 501.91 363.15 502.26C363.875 504.589 364.926 506.804 366.27 508.84C368.27 511.52 371.08 513.33 373.83 515.07C374.58 515.54 375.35 516.07 376.09 516.52C379.148 518.57 381.942 520.988 384.41 523.72V523.72Z" fill="#CE6270"/>
<path id="Vector_28" d="M417.7 578.44C415.2 577.64 413.7 575.14 412.1 573.08C408.68 568.77 403.84 565.91 399.3 562.8C394.76 559.69 390.3 556.02 388.22 550.93L395.97 547.65C397.467 553.615 401.086 558.83 406.15 562.32C410.28 565.32 415.15 565.66 419.34 568.02C422.34 569.76 421.76 568.63 420.34 572.09C420.11 572.7 417.29 578.31 417.7 578.44Z" fill="#8F7345"/>
<path id="Vector_29" d="M365.51 329.22C370.661 327.833 375.175 324.711 378.29 320.38C379.14 319.19 379.89 317.89 380.61 316.64C382.04 314.18 383.38 311.85 385.47 310.15L384.81 309.34C382.57 311.16 381.12 313.68 379.71 316.12C379.015 317.374 378.257 318.592 377.44 319.77C374.47 323.903 370.164 326.884 365.25 328.21L365.51 329.22Z" fill="#CE6270"/>
<path id="Vector_30" d="M340.25 368.33C341.926 368.373 343.598 368.126 345.19 367.6C346.539 367.075 347.827 366.405 349.03 365.6L361.39 357.81C363.31 356.6 365.29 355.35 367.33 354.31L366.86 353.38C364.77 354.45 362.77 355.71 360.86 356.93L348.5 364.71C347.36 365.488 346.139 366.142 344.86 366.66C343.272 367.171 341.606 367.395 339.94 367.32C337.655 367.288 335.382 366.982 333.17 366.41L332.91 367.41C335.197 368.006 337.547 368.321 339.91 368.35L340.25 368.33Z" fill="#CE6270"/>
</g>
<g id="Small Pumpking">
<path id="Vector_31" d="M260.12 628.82C266.9 647.3 276.82 665.48 292.9 676.82C296.02 679.02 299.35 680.94 302.21 683.47C305.75 686.62 308.67 690.76 313.11 692.47C317.55 694.18 322.56 693.05 326.78 695.03C329.92 696.5 332.11 699.44 335.01 701.34C337.492 702.909 340.387 703.697 343.321 703.603C346.256 703.508 349.094 702.535 351.47 700.81C352.75 699.81 353.95 698.62 355.53 698.34C357.11 698.06 358.82 698.86 360.41 699.45C365.59 701.34 371.31 700.71 376.78 700.05C387.05 698.83 397.7 697.47 406.49 692.05C413.81 687.5 419.22 680.47 424.09 673.36C430.512 663.979 436.295 654.177 441.4 644.02C447.54 631.8 452.72 617.37 447.4 604.77C446.3 602.16 444.78 599.77 443.79 597.08C442.772 593.974 442.101 590.764 441.79 587.51C439.53 570.93 435.79 554.19 427.12 539.89C418.45 525.59 404.05 513.97 387.43 512.08C375.58 510.74 363.49 514.32 351.74 512.3H351.64C345.99 511.3 340.58 509.05 334.86 508.51C326.3 507.7 320.06 513.57 312.46 516.36C304.86 519.15 297.46 523 293.4 530.2C292.59 531.63 291.95 533.2 291.19 534.62C290.707 535.587 290.131 536.505 289.47 537.36C287.6 539.72 284.91 541.27 282.64 543.26C272.23 552.41 272.77 568.49 267.9 581.48C264.25 591.17 257.24 599.82 256.42 610.14C255.94 616.47 257.91 622.8 260.12 628.82Z" fill="#8D68AD"/>
<path id="Vector_32" opacity="0.1" d="M260.67 628.82C267.45 647.3 277.36 665.48 293.45 676.82C296.57 679.02 299.9 680.94 302.75 683.47C306.3 686.62 309.22 690.76 313.66 692.47C318.1 694.18 323.11 693.05 327.33 695.03C330.47 696.5 332.66 699.44 335.55 701.34C338.034 702.908 340.93 703.696 343.866 703.602C346.802 703.507 349.642 702.535 352.02 700.81C353.29 699.81 354.5 698.62 356.02 698.34C357.54 698.06 359.32 698.86 360.91 699.45C366.09 701.34 371.8 700.71 377.28 700.05C387.55 698.83 398.2 697.47 406.98 692.05C414.31 687.5 419.72 680.47 424.59 673.36C431.008 663.977 436.791 654.175 441.9 644.02C448.04 631.8 453.22 617.37 447.9 604.77C446.8 602.16 445.28 599.77 444.29 597.08C443.267 593.975 442.596 590.765 442.29 587.51C440.03 570.93 436.29 554.19 427.62 539.89C418.95 525.59 404.55 513.97 387.92 512.08C376.08 510.74 363.99 514.32 352.24 512.3H352.14C346.49 511.3 341.08 509.05 335.36 508.51C326.8 507.7 320.56 513.57 312.96 516.36C305.36 519.15 297.96 523 293.9 530.2C293.09 531.63 292.45 533.2 291.69 534.62C291.207 535.587 290.631 536.505 289.97 537.36C288.1 539.72 285.41 541.27 283.14 543.26C272.73 552.41 273.27 568.49 268.39 581.48C264.75 591.17 257.74 599.82 256.91 610.14C256.49 616.47 258.46 622.8 260.67 628.82Z" fill="black"/>
<path id="Vector_33" opacity="0.1" d="M291.23 534.57C292.842 535.866 294.643 536.908 296.57 537.66C300.788 539.543 305.476 540.108 310.02 539.28C316.58 537.87 321.69 532.93 327.28 529.22C330.132 527.336 333.168 525.744 336.34 524.47C341.34 522.47 351.53 519.99 351.8 513.01C351.815 512.76 351.815 512.51 351.8 512.26H351.7C346.05 511.26 340.64 509.01 334.92 508.47C326.36 507.66 320.12 513.53 312.52 516.32C304.92 519.11 297.52 522.96 293.46 530.16C292.63 531.57 291.99 533.09 291.23 534.57Z" fill="black"/>
<path id="Vector_34" d="M309.36 496.03C305.826 492.151 301.492 489.084 296.658 487.042C291.824 485 286.605 484.03 281.36 484.2C280.461 489.604 280.209 495.096 280.61 500.56C286.9 501.86 293.29 503.19 298.96 506.19C304.63 509.19 309.61 514.19 311.11 520.4C313.5 530.4 318.71 526.18 318.38 517.97C317.959 509.843 314.777 502.103 309.36 496.03V496.03Z" fill="#322C35"/>
<path id="Vector_35" opacity="0.1" d="M412.97 551.11C420.66 564.28 424.61 579.28 427.61 594.24C428.788 599.651 429.59 605.138 430.01 610.66C431.01 627.66 425.83 644.4 420.71 660.66H415.42L416.71 627.66C417.2 615.18 417.71 602.6 415.58 590.29C411.636 567.79 399.374 547.597 381.23 533.72C379.4 532.33 377.42 530.9 376.57 528.72C371.97 517.02 392.15 528.55 394.66 530.39C402.118 535.97 408.35 543.022 412.97 551.11Z" fill="black"/>
<path id="Vector_36" d="M383.89 568.08L404.79 597.28L390.6 600.57L383.89 590.23L378.79 592.37L374.45 587.3C374.45 587.3 384.28 572.42 383.89 568.08Z" fill="#322C35"/>
<path id="Vector_37" d="M362.19 596.49L374.42 617.39L358.64 621.73C358.64 621.73 359.04 598.85 362.19 596.49Z" fill="#322C35"/>
<path id="Vector_38" d="M327.48 575.21L339.7 592.37L336.15 594.51L330.24 607.82L321.51 609.11L316.04 605.97L327.48 575.21Z" fill="#322C35"/>
<path id="Vector_39" d="M413.87 612.66L412.29 629.23H406.77L392.17 667.31H385.46L379.94 651.92L366.53 655.52L362.19 671.43L335.76 669.07L327.87 642.05L307.75 639.48V621.73L332.61 629.62L336.55 647.77L356.27 650.13L366.53 629.62L386.65 646.19L396.12 618.18L413.87 612.66Z" fill="#322C35"/>
</g>
<g id="Hair Fly">
<path id="Vector_40" d="M556.85 223.34C557.57 229.92 563.63 235.21 568.08 240.8C572.53 246.39 575.27 254.22 569.8 259.21C567.97 260.88 565.46 261.97 563.34 263.4C560.046 265.552 557.643 268.825 556.576 272.612C555.51 276.4 555.852 280.445 557.54 284C561.98 293.41 574.44 300.54 574.29 310.57C574.29 314.13 572.53 317.52 570.84 320.82L560.79 340.57C558.01 346 555.2 351.57 554.85 357.39C554.608 360.492 555.259 363.598 556.726 366.341C558.194 369.084 560.416 371.35 563.13 372.87C548.23 372.63 532.13 368.61 524.25 358.59C519.93 353.08 518.66 346.45 517.37 340.04C515.59 331.2 513.37 321.97 506.26 315.04C503.46 312.3 499.99 310.04 497.26 307.22C493.805 303.756 491.705 299.169 491.34 294.29C490.6 281.04 504.08 269.34 503.78 256.08C503.59 247.18 497.2 239.15 494.78 230.45C491.89 219.91 495.04 208.84 500.5 198.97C501.295 197.377 502.35 195.927 503.62 194.68C511.37 187.54 535.91 181.97 546.79 187.21C552.43 189.94 557.79 196.14 559.48 201.06C562.22 208.68 556.01 215.71 556.85 223.34Z" fill="#322C35"/>
<path id="Vector_41" opacity="0.1" d="M563.1 372.85C560.041 372.8 556.986 372.587 553.95 372.21C551.55 370.591 549.623 368.364 548.365 365.757C547.107 363.15 546.564 360.256 546.79 357.37C547.14 351.52 549.95 345.97 552.72 340.55L562.79 320.82C564.48 317.52 566.19 314.13 566.24 310.57C566.39 300.57 553.92 293.4 549.49 284C547.802 280.445 547.46 276.4 548.526 272.612C549.593 268.825 551.996 265.552 555.29 263.4C557.41 261.97 559.92 260.88 561.75 259.21C567.22 254.21 564.48 246.39 560.03 240.8C555.58 235.21 549.49 229.92 548.79 223.34C547.95 215.71 554.16 208.68 551.47 201C549.74 196.09 544.41 189.88 538.77 187.16C536.381 186.1 533.827 185.461 531.22 185.27C537.22 184.79 542.94 185.27 546.86 187.16C552.5 189.88 557.86 196.09 559.55 201C562.24 208.68 556.03 215.71 556.87 223.34C557.59 229.92 563.65 235.21 568.1 240.8C572.55 246.39 575.29 254.22 569.82 259.21C567.99 260.88 565.48 261.97 563.36 263.4C560.066 265.552 557.663 268.825 556.596 272.612C555.53 276.4 555.872 280.445 557.56 284C562 293.4 574.46 300.54 574.31 310.57C574.31 314.13 572.55 317.52 570.86 320.82L560.79 340.57C558.01 345.99 555.2 351.57 554.85 357.39C554.609 360.485 555.257 363.585 556.719 366.324C558.181 369.063 560.395 371.327 563.1 372.85V372.85Z" fill="black"/>
</g>
<g id="Left Leg">
<path id="Vector_42" d="M726.96 553.57C726.7 559.57 728.59 565.49 730.47 571.24C739.65 573.61 749.23 570.07 758.65 568.5C763.5 567.69 768.31 567.39 773.02 568.69C780.02 570.64 785.62 575.86 791.15 580.62C810.88 597.68 834.05 611.21 859.39 617.33C888.54 624.33 920.6 621.19 947.63 634.19C950.16 621.198 953.554 608.39 957.79 595.85C955.197 595.287 952.642 594.562 950.14 593.68C947.209 592.653 944.332 591.479 941.52 590.16C930.08 584.87 919.31 577.74 907.52 573.01C900.22 570.07 892.59 568.09 885.04 565.88C859.929 558.552 835.567 548.866 812.28 536.95C806.63 534.05 800.89 530.95 794.59 530.13C789.09 529.38 783.52 530.38 778.07 531.37C774.517 532.037 770.97 532.703 767.43 533.37C759.23 534.86 751.03 536.37 742.82 537.83L741.31 538.12L740.75 538.24C732.58 539.98 727.4 543.36 726.96 553.57Z" fill="#F8BDC5"/>
<path id="Vector_43" opacity="0.1" d="M740.79 538.19C741.503 541.374 742.812 544.394 744.65 547.09C745.239 548.08 746.134 548.852 747.2 549.29C748.563 549.55 749.973 549.338 751.2 548.69L770.33 541.13C772.085 540.301 773.991 539.842 775.93 539.78C779.07 539.91 781.7 542.1 784.02 544.22C795.49 554.66 806.46 566.22 820.54 572.74C826.581 575.352 832.834 577.446 839.23 579C860.48 584.74 882.03 590 904.02 591C919.39 591.73 935.32 590.5 950.16 593.66C935.39 588.53 922.22 578.89 907.59 572.99C900.29 570.05 892.66 568.07 885.11 565.86C859.999 558.532 835.637 548.846 812.35 536.93C806.7 534.03 800.96 530.93 794.66 530.11C789.16 529.36 783.59 530.36 778.14 531.35C766.39 533.49 754.65 535.67 742.89 537.76C742.18 537.91 741.49 538.04 740.79 538.19Z" fill="black"/>
<path id="Vector_44" opacity="0.1" d="M962.69 595.5L968.87 604.5L979.08 611.38C979.16 611.38 981.02 611.73 983.79 612.17C983.736 613.611 983.813 615.053 984.02 616.48L1015.96 625.64C1026.73 628.73 1039.5 631.45 1048.13 624.32C1048.52 623.99 1048.89 623.66 1049.23 623.32C1046.85 622.32 1044.45 621.39 1042.05 620.5C1036.05 618.28 1029.83 616.5 1023.63 614.78C1015.48 612.51 1007.3 610.33 999.39 607.37L999.01 607.23C988.01 603.08 977.5 597.4 965.95 594.91L963.22 594.33L962.69 595.5Z" fill="black"/>
<path id="Vector_45" d="M999.02 609.38C1013.02 614.69 1027.95 617.47 1042.02 622.64C1054.22 627.13 1065.93 633.43 1078.78 635.39C1084.96 636.33 1091.24 636.24 1097.48 636.47C1099.29 636.431 1101.1 636.771 1102.77 637.47C1103.6 637.828 1104.31 638.42 1104.81 639.176C1105.3 639.931 1105.57 640.816 1105.57 641.72C1105.41 642.795 1104.97 643.809 1104.29 644.66C1099.8 651.187 1093.31 656.071 1085.79 658.57C1080.07 660.46 1073.98 660.88 1067.97 661.28C1048.64 662.59 1029.09 663.89 1009.97 660.53C1006.76 659.994 1003.59 659.229 1000.49 658.24C985.85 653.41 974.12 641.61 959.21 637.7C956.04 636.87 952.77 636.4 949.72 635.19C946.67 633.98 943.8 631.86 942.65 628.8C940.95 624.24 943.46 619.32 945.43 614.87C946.72 611.952 947.796 608.944 948.65 605.87C949.23 603.76 949.2 598.78 950.43 597.15C952.72 594.15 962.37 596.37 965.89 597.15C977.5 599.57 988.04 605.23 999.02 609.38Z" fill="#F8BDC5"/>
<path id="Vector_46" d="M1030.71 654.75C1035.71 654.62 1040.83 654.5 1045.86 653.91C1051.55 653.24 1057.2 651.98 1062.93 651.86C1069.59 651.72 1076.34 653.12 1082.87 651.86C1089.4 650.6 1095.93 645.19 1095.35 638.56C1092.7 639.44 1088.69 639.56 1088.26 636.82C1087.99 635.04 1089.65 633.62 1091.12 632.6L1121.02 611.88C1123.02 610.5 1125.38 609.04 1127.73 609.67C1129.88 610.25 1131.25 612.48 1131.51 614.67C1131.61 616.901 1131.27 619.13 1130.51 621.23L1126.68 634.69C1124.18 643.45 1121.68 652.31 1117 660.14C1115.17 663.434 1112.72 666.346 1109.79 668.72C1103.95 673.16 1096.14 674.11 1088.79 673.72C1081.44 673.33 1074.24 671.62 1066.9 671.47C1056.71 671.26 1046.71 673.98 1036.9 676.68C1034.12 677.44 1030.66 679.24 1031.24 682.06C1031.45 682.812 1031.82 683.512 1032.31 684.12C1034.83 687.71 1037.46 691.4 1041.19 693.72C1044.92 696.04 1049.6 696.79 1053.87 698.19C1058.38 699.677 1062.58 701.975 1066.27 704.97C1067.26 705.664 1068.05 706.619 1068.53 707.73C1068.76 708.286 1068.79 708.905 1068.6 709.479C1068.42 710.052 1068.04 710.541 1067.53 710.86L1001.04 685.18C999.367 684.688 997.84 683.796 996.59 682.58C995.586 681.247 994.901 679.7 994.59 678.06L991.06 664.56C990.4 662.04 989.67 659.4 987.89 657.5C983.17 652.5 972.94 654.39 970.08 648.1C975.9 644.98 983.08 645.16 989.34 647.17C995.29 649.08 1000.97 654.92 1007.02 655.49C1014.67 656.14 1023.04 654.93 1030.71 654.75Z" fill="#322C35"/>
</g>
<path id="Vector_47" opacity="0.1" d="M512.24 292.17C542.146 292.17 566.39 267.926 566.39 238.02C566.39 208.114 542.146 183.87 512.24 183.87C482.334 183.87 458.09 208.114 458.09 238.02C458.09 267.926 482.334 292.17 512.24 292.17Z" fill="black"/>
<g id="Right Leg">
<path id="Vector_48" d="M962.69 595.5L968.87 604.5L979.08 611.38C979.16 611.38 981.02 611.73 983.79 612.17C992.42 613.53 1009.9 616.17 1009.9 616.17L1023.63 614.81L1029.39 614.24L1037.39 608.59L1047.69 595.52L1036.37 579.9C1032.35 580.378 1028.28 580.29 1024.29 579.64C1019.92 579.001 1015.73 577.432 1012.02 575.04C1001.62 568.04 980.4 562.39 980.4 562.39L977.4 563.28L963.26 594.36L962.69 595.5Z" fill="#F8BDC5"/>
<path id="Vector_49" d="M739.45 522.72C739.57 527.86 739.87 533.21 741.38 538.07C742.114 540.521 743.228 542.843 744.68 544.95C745.269 545.94 746.164 546.712 747.23 547.15C748.593 547.41 750.003 547.198 751.23 546.55L765.36 540.97C767.03 540.31 768.7 539.66 770.36 538.97C772.114 538.14 774.021 537.684 775.96 537.63C779.1 537.75 781.73 539.95 784.05 542.06C795.52 552.5 806.49 564.06 820.57 570.58C826.611 573.192 832.864 575.286 839.26 576.84C860.51 582.59 882.06 587.84 904.05 588.84C916.48 589.43 929.28 588.74 941.57 590.12C948.85 590.817 955.981 592.618 962.72 595.46C968.933 584.593 974.833 573.55 980.42 562.33C966.97 558.04 954.06 552.23 941.2 546.43L911.79 533.21C879.33 518.57 846.43 503.69 819.39 480.57C813.8 475.81 808.45 470.68 802.15 466.89C788.15 458.47 770.62 458.19 755.92 464.63C753.586 465.651 751.33 466.841 749.17 468.19C734.02 477.72 739.04 506.99 739.45 522.72Z" fill="#F8BDC5"/>
<path id="Vector_50" d="M983.79 612.19C983.736 613.631 983.813 615.073 984.02 616.5L1015.96 625.66C1026.73 628.75 1039.5 631.47 1048.13 624.34C1048.52 624.01 1048.89 623.68 1049.23 623.34C1053.56 619.13 1055.62 613.01 1057.47 607.21C1059.38 601.21 1061.29 595.21 1063.21 589.21C1065.31 582.61 1067.44 575.81 1066.94 568.9C1066.96 567.359 1066.44 565.86 1065.46 564.67C1064.2 563.42 1062.25 563.27 1060.46 563.29C1049.46 563.49 1040.95 571.48 1030.99 576.17C1028.67 577.177 1026.42 578.34 1024.26 579.65C1020.96 581.89 1025.33 582.04 1031.34 585.98C1035.1 588.45 1041.81 595.57 1040.25 599.8C1038.18 605.45 1030.84 606.67 1024.82 606.91C1016.35 607.243 1007.86 607.41 999.37 607.41C994.363 607.41 989.363 607.357 984.37 607.25C984.009 608.873 983.814 610.528 983.79 612.19V612.19Z" fill="#322C35"/>
</g>
<g id="Dress">
<path id="Vector_51" opacity="0.1" d="M462.65 463.79C463.43 465.9 464.21 468.01 465.02 470.12C502.073 450.938 532.2 420.647 551.18 383.49C552.38 381.13 553.56 378.61 553.44 375.96C553.31 372.96 551.53 370.31 549.82 367.84C549 366.65 548.18 365.45 547.35 364.27C538.01 369.95 527.49 378.51 522.45 388.43C520.29 392.68 519.53 397.38 517.01 401.54C513.73 406.97 509.18 411.54 504.68 415.99C494.547 425.99 484.403 436.01 474.25 446.05C470.25 449.96 466.25 454.05 464.06 459.18C463.453 460.672 462.982 462.214 462.65 463.79V463.79Z" fill="black"/>
<path id="Vector_52" d="M459.26 528.62C459.26 528.95 459.32 529.28 459.36 529.62C459.38 530.244 459.533 530.857 459.809 531.418C460.085 531.978 460.477 532.473 460.96 532.87C461.884 533.343 462.929 533.531 463.96 533.41C465.18 533.41 466.41 533.34 467.63 533.29C498.778 532.091 529.519 525.794 558.63 514.65C564.83 512.26 571.02 509.65 576.32 505.65C575.86 505.501 575.428 505.278 575.04 504.99C572.97 503.53 572.13 500.51 571.62 497.88C569.66 487.733 567.927 477.547 566.42 467.32C565.623 462.907 565.308 458.421 565.48 453.94C565.78 449.86 566.85 445.78 566.26 441.73C565.92 439.34 565 437.08 564.56 434.73C562.56 423.92 570.38 414 573.4 403.43C575.017 397.582 575.181 391.428 573.878 385.502C572.574 379.577 569.842 374.059 565.92 369.43C563.15 366.22 559.41 363.36 555.18 363.43C552.42 363.51 549.87 364.85 547.51 366.28C544.595 368.034 541.78 369.95 539.08 372.02C532.39 377.16 526.03 383.57 522.45 390.57C520.29 394.82 519.53 399.52 517.01 403.68C513.73 409.11 509.18 413.68 504.68 418.13L474.68 447.77L474.25 448.19C470.25 452.1 466.25 456.19 464.06 461.32C462.841 464.593 462.058 468.013 461.73 471.49C459.16 490.41 457.87 509.57 459.26 528.62Z" fill="#322C35"/>
<path id="Vector_53" opacity="0.1" d="M726.96 553.57C726.7 559.57 728.59 565.49 730.47 571.24C739.65 573.61 749.23 570.07 758.65 568.5C759.97 559.19 762.65 550.11 765.33 541.02C766.07 538.48 766.81 535.92 767.5 533.37C769.471 526.501 770.846 519.475 771.61 512.37C772.797 499.11 770.705 485.762 765.52 473.5C764.42 470.9 763.11 468.27 760.86 466.6C759.411 465.538 757.707 464.879 755.92 464.69C753.586 465.711 751.33 466.901 749.17 468.25C734.02 477.75 739.04 507.02 739.45 522.75C739.57 527.89 739.87 533.24 741.38 538.1L740.82 538.22C732.58 539.98 727.4 543.36 726.96 553.57Z" fill="black"/>
<path id="Vector_54" d="M593.33 512.38C594.54 514.52 595.54 517.21 597.9 517.92C602.72 519.37 605.17 511.33 610.07 510.16C612.32 509.63 614.6 510.68 616.86 511.22C634.86 515.49 647.25 487.44 665.68 489.08C668.95 489.38 672.07 490.63 675.34 490.91C681.87 491.46 688.01 488.1 693.83 485.06C709.368 476.961 725.723 470.538 742.62 465.9C747.62 464.52 753.49 463.44 757.62 466.56C759.87 468.25 761.19 470.88 762.29 473.47C767.472 485.733 769.56 499.081 768.37 512.34C766.51 532.7 757.01 551.76 754.96 572.11C753.82 583.5 755.04 595.11 752.86 606.36C751.293 614.231 748.12 621.694 743.538 628.282C738.956 634.87 733.064 640.442 726.23 644.65C717.43 650 707.23 652.94 698.82 658.85C690.41 664.76 683.7 675.26 686.82 685.08C688.44 690.18 692.03 696.86 687.57 699.84C686.19 700.76 684.4 700.84 682.97 701.71C679.55 703.71 679.71 708.71 677.78 712.19C674.29 718.51 665.24 718.4 658.16 716.92C651.08 715.44 642.66 713.79 637.5 718.84C633.82 722.43 632.76 728.74 627.98 730.62C621.98 733 616.24 726.24 609.84 725.17C606.79 724.66 603.69 725.48 600.79 726.55C588.11 731.25 576.1 740.99 562.79 738.7C550.97 736.7 542.64 725.7 531.28 721.86C521.42 718.52 510.37 721.01 501.19 725.93C497 728.17 492.77 730.99 488.02 730.93C483.27 730.87 478.88 727.77 474.6 725.38C460.6 717.59 443.78 716.83 427.84 718.26C415.34 719.38 399.43 720.01 393.93 708.74C392.93 706.74 392.42 704.49 391.01 702.74C387.93 698.97 382.19 699.25 377.68 697.42C368.16 693.55 365.77 680.26 370.09 670.94C374.41 661.62 383.24 655.36 391.57 649.35C412.42 634.35 434 615.77 437.82 590.35C440.58 571.97 434.36 549.99 447.48 536.82C452.87 531.4 460.48 528.93 467.83 526.82C486.195 521.511 504.849 517.258 523.7 514.08C533.28 512.46 542.9 511.127 552.56 510.08C557.01 509.59 562.18 509.85 566.49 508.73C569.44 507.97 571.59 505.92 574.56 505.1C581.44 503.2 589.79 506.05 593.33 512.38Z" fill="#322C35"/>
<path id="Vector_55" opacity="0.1" d="M401.2 697.46C401.84 699.3 403.76 700.31 405.54 701.09C422.766 708.544 442.109 709.506 459.99 703.8C469.07 700.87 477.79 696.06 483.75 688.62C495.56 673.84 494 652.96 495.24 634.08C497.59 598.08 512.18 563.35 514.02 527.68C514.21 523.74 514.25 519.78 514.11 515.81C514.11 514.68 514.02 513.56 513.94 512.42C513.43 504.3 512.08 496.2 512.46 488.08C512.862 482.356 513.707 476.673 514.99 471.08C521.83 437.78 529.87 404.753 539.11 372C532.39 377.16 526.03 383.57 522.45 390.57C520.29 394.82 519.53 399.52 517.01 403.68C513.73 409.11 509.18 413.68 504.68 418.13L474.68 447.77C472.513 474.09 470.357 500.423 468.21 526.77L467.67 533.32C467.41 536.51 467.14 539.71 466.89 542.89C465.02 565.72 463.14 588.59 463.55 611.49C463.88 629.59 464.86 649.96 452.47 663.17C447.56 668.41 441.04 671.83 434.67 675.17L406.85 689.57C403.72 691.23 400.03 694.11 401.2 697.46Z" fill="black"/>
<path id="Vector_56" opacity="0.1" d="M615.62 559.49C618.01 565.81 619.15 572.54 621.4 578.9C626.665 593.499 637.493 605.42 651.52 612.06C637.452 608.303 625.082 599.871 616.442 588.151C607.802 576.431 603.407 562.119 603.98 547.57C604.11 544.36 604.34 539.05 606.82 536.88C609.05 539.06 609.26 544.41 610.42 547.42C612 551.51 614.07 555.39 615.62 559.49Z" fill="black"/>
<path id="Vector_57" opacity="0.1" d="M579.18 576.69C586.77 583.01 592.61 591.2 597.39 599.84C610.72 624.038 616.2 651.781 613.07 679.23C604.2 661.68 602.07 641.41 593.62 623.64C586.85 609.34 576.31 597.21 567.86 583.83C566.31 581.36 555.03 568.33 558.05 566.45C562.32 563.78 576.16 574.17 579.18 576.69Z" fill="black"/>
</g>
<g id="Buste">
<path id="Vector_58" d="M429.97 332.8C436.132 377.513 447.088 421.432 462.65 463.8C463.43 465.91 464.21 468.02 465.02 470.13C466.23 469.49 467.44 468.86 468.64 468.21C504.057 448.931 532.826 419.405 551.18 383.5C552.38 381.14 553.56 378.62 553.44 375.97C553.31 372.97 551.53 370.32 549.82 367.85C549 366.66 548.18 365.46 547.35 364.28L539.7 353.22C533.64 344.46 527.577 335.697 521.51 326.93C517.04 320.48 512.46 313.69 510.92 306.09C510.717 305.116 510.573 304.131 510.49 303.14C509.85 295.98 512.95 289.86 518.29 285.37C519.42 284.43 521.37 284.45 521.51 282.86C521.61 281.64 517.67 279.08 516.82 278.37C513.45 275.425 509.803 272.813 505.93 270.57C499.57 267.06 492.12 265.03 484.98 266.38C482.665 266.737 480.483 267.692 478.65 269.15C475.55 271.81 474.54 276.08 473.02 279.87C469.481 288.579 462.655 295.544 454.02 299.26C447.02 302.26 438.74 303.2 433.71 308.86C428.18 315.14 428.79 324.57 429.97 332.8Z" fill="#F8BDC5"/>
<path id="Vector_59" d="M512.24 290.03C542.146 290.03 566.39 265.786 566.39 235.88C566.39 205.974 542.146 181.73 512.24 181.73C482.334 181.73 458.09 205.974 458.09 235.88C458.09 265.786 482.334 290.03 512.24 290.03Z" fill="#F8BDC5"/>
<path id="Vector_60" opacity="0.1" d="M468.64 468.2C487.83 457.771 505.175 444.257 519.98 428.2C524.947 407.2 530.407 386.323 536.36 365.57C537.54 361.46 538.74 357.36 539.7 353.2C533.64 344.44 527.577 335.677 521.51 326.91C517.04 320.46 512.46 313.67 510.92 306.07C498.49 309.52 487.66 326.29 483.48 336.89C478.36 349.89 477.16 364.06 476.03 377.99C474.697 394.517 473.343 411.043 471.97 427.57C470.85 441.117 469.74 454.66 468.64 468.2Z" fill="black"/>
<path id="Vector_61" d="M543.97 337.89C543.81 347.33 541.1 356.51 538.51 365.58C528.63 400.06 520.08 434.883 512.86 470.05C511.565 475.641 510.716 481.325 510.32 487.05C509.94 495.18 511.32 503.27 511.81 511.39C514.42 552.46 495.81 591.98 493.1 633.05C491.86 651.92 493.42 672.81 481.61 687.58C475.61 695.03 466.93 699.84 457.85 702.77C439.97 708.479 420.627 707.52 403.4 700.07C401.62 699.29 399.7 698.26 399.06 696.43C397.89 693.09 401.58 690.2 404.72 688.57L432.53 674.09C438.91 670.77 445.42 667.35 450.34 662.09C462.72 648.88 461.74 628.52 461.42 610.42C461 587.51 462.88 564.64 464.75 541.81L474.1 427.57L478.16 377.98C479.3 364.06 480.5 349.89 485.62 336.89C490.09 325.57 502.18 307.16 515.68 305.57C534.09 303.37 544.22 322.09 543.97 337.89Z" fill="#F8BDC5"/>
</g>
<g id="Hair Back">
<path id="Vector_62" d="M418.67 224.47C415.77 227.47 412.4 230.11 410.21 233.55C407 238.62 406.73 244.74 406.54 250.55C406.3 258.01 406.13 265.79 409.66 272.55C411.58 276.19 414.49 279.36 416.33 283.03C418.17 286.7 418.75 291.34 416.05 294.56C413.98 297.03 410.46 298.12 408.05 300.3C402.25 305.52 404.67 314.3 407.76 321.18C412.7 332.18 418.45 343 420.41 354.71C422.37 366.42 419.88 379.48 410.41 387.66C408.96 388.92 407.26 390.19 406.88 391.98C406.705 393.33 406.986 394.699 407.68 395.87C411.82 404.47 421.55 410.61 431.89 411.15C433.886 411.349 435.902 411.071 437.77 410.34C439.421 409.496 440.876 408.313 442.04 406.87C446.36 402.15 450.34 396.77 451.04 390.67C452.14 380.78 444.55 372.08 440.33 362.9C438.376 358.686 437.113 354.185 436.59 349.57C435.95 343.83 436.81 337.38 441.53 333.49C447.97 328.19 457.96 330.06 466.53 331.28C473.463 332.268 480.474 332.603 487.47 332.28C491.34 332.1 495.64 331.5 498.02 328.73C501.83 324.3 498.13 317.82 493.75 313.85C489.37 309.88 483.84 305.78 483.83 300.15C483.83 295.55 487.59 291.79 490.06 287.77C492.291 284.126 493.518 279.958 493.618 275.687C493.718 271.416 492.687 267.194 490.63 263.45C489.14 260.77 487.07 258.04 487.51 255.06C488.1 251.11 492.66 248.9 496.51 246.95C506.174 242.081 514.414 234.795 520.43 225.8C526.5 216.56 529.27 203.8 521.55 195.65C516.14 189.92 507.25 188.22 499 187.23C485.068 185.54 471.03 184.872 457 185.23C448.29 185.46 433.12 185.98 431.25 195.44C429.04 206.4 427.22 215.72 418.67 224.47Z" fill="#322C35"/>
<path id="Vector_63" opacity="0.1" d="M418.99 405.65C420.99 405.844 423.007 405.566 424.88 404.84C426.523 403.984 427.976 402.803 429.15 401.37C433.46 396.64 437.44 391.27 438.15 385.16C439.24 375.27 431.65 366.57 427.43 357.4C425.478 353.166 424.222 348.644 423.71 344.01C423.08 338.26 423.93 331.81 428.65 327.93C435.09 322.62 445.09 324.5 453.65 325.72C460.584 326.703 467.594 327.038 474.59 326.72C478.46 326.54 482.76 325.95 485.14 323.18C488.95 318.74 485.26 312.27 480.87 308.29C476.48 304.31 470.96 300.22 470.95 294.6C470.95 290 474.71 286.23 477.19 282.21C479.426 278.566 480.659 274.395 480.765 270.121C480.87 265.846 479.844 261.62 477.79 257.87C476.29 255.18 474.22 252.45 474.66 249.47C475.25 245.53 479.81 243.32 483.66 241.36C493.321 236.494 501.558 229.212 507.57 220.22C513.64 210.98 516.42 198.22 508.7 190.07C508.1 189.44 507.455 188.855 506.77 188.32C512.63 189.52 518.2 191.55 522.03 195.6C529.75 203.76 526.98 216.51 520.91 225.75C514.892 234.743 506.652 242.028 496.99 246.9C493.16 248.85 488.61 251.06 487.99 255.01C487.55 258.01 489.62 260.72 491.11 263.4C493.167 267.144 494.198 271.366 494.098 275.637C493.998 279.908 492.771 284.076 490.54 287.72C488.07 291.72 484.29 295.5 484.3 300.1C484.3 305.73 489.84 309.82 494.23 313.8C498.62 317.78 502.31 324.25 498.5 328.68C496.12 331.45 491.82 332.05 487.95 332.23C480.954 332.553 473.943 332.218 467.01 331.23C458.41 330.01 448.41 328.14 442.01 333.44C437.29 337.33 436.43 343.78 437.06 349.52C437.577 354.161 438.836 358.689 440.79 362.93C445.01 372.11 452.6 380.81 451.5 390.7C450.82 396.8 446.85 402.18 442.5 406.9C441.333 408.341 439.879 409.523 438.23 410.37C436.358 411.102 434.34 411.379 432.34 411.18C426.488 410.845 420.86 408.816 416.14 405.34C417.07 405.48 418.02 405.57 418.99 405.65Z" fill="black"/>
</g>
<g id="Hat">
<path id="Vector_64" d="M457.42 185.57L457.54 185.68C460.63 188.77 464.82 190.52 468.97 191.9C481.06 195.9 493.97 197.71 505.64 202.68C507 203.25 508.35 203.87 509.64 204.55C515.33 207.44 520.5 211.23 525.64 214.99C532.46 219.99 539.3 224.99 545.37 230.87C547.93 233.35 550.37 235.97 553.05 238.29C558.33 242.81 564.6 246.02 570.8 249.18L587.7 257.8C592.13 260.07 596.61 262.35 601.42 263.62C606.033 264.841 610.848 265.102 615.567 264.388C620.285 263.675 624.807 262.001 628.853 259.47C632.899 256.94 636.383 253.606 639.09 249.676C641.797 245.746 643.669 241.302 644.59 236.62C645.169 233.882 645.291 231.068 644.95 228.29C644.385 225.116 643.407 222.03 642.04 219.11C638.22 210.05 633.79 200.97 626.65 194.24C623.398 191.321 619.913 188.672 616.23 186.32L596.23 172.76C593.23 170.76 590.16 168.65 586.7 167.56C580.25 165.56 573.7 167.28 567.25 166.79C566.8 166.79 566.36 166.72 565.92 166.66C560.24 165.95 556.18 161.09 550.45 159.66C545.15 158.35 539.62 158.39 534.16 158.44L481.05 158.92C478.042 158.824 475.034 159.113 472.1 159.78C467.67 161 463.92 163.89 460.31 166.73C459.87 167.07 459.43 167.42 458.99 167.79C456.98 169.239 455.364 171.167 454.29 173.4C452.62 177.57 454.32 182.4 457.42 185.57Z" fill="#8D68AD"/>
<path id="Vector_65" opacity="0.1" d="M457.71 196.94C458.36 198.32 459.96 198.94 461.43 199.35C475.68 203.35 491.1 200.4 505.64 202.69C507.754 203.028 509.848 203.485 511.91 204.06C517.71 205.73 523.14 208.53 528.91 210.33C538.91 213.42 549.51 213.41 559.91 213C561.245 213.051 562.572 212.78 563.78 212.21C564.351 211.888 564.79 211.373 565.019 210.758C565.248 210.144 565.252 209.468 565.03 208.85C566.779 197.511 567.535 186.041 567.29 174.57C567.29 171.99 567.15 169.35 567.29 166.74C566.84 166.74 566.4 166.67 565.96 166.61C560.28 165.9 556.22 161.04 550.49 159.61C545.19 158.3 539.66 158.34 534.2 158.39L481.09 158.87C478.082 158.774 475.074 159.063 472.14 159.73C467.71 160.95 463.96 163.84 460.35 166.68C459.91 167.02 459.47 167.37 459.03 167.74C458.153 170.693 457.721 173.76 457.75 176.84C457.68 179.76 457.63 182.71 457.57 185.63C457.51 188.55 457.45 191.42 457.4 194.32C457.302 195.206 457.408 196.102 457.71 196.94Z" fill="black"/>
<path id="Vector_66" d="M562.92 206.72C564.652 195.386 565.398 183.923 565.15 172.46C565 165.62 564.63 158.25 568.4 152.55C569.4 151.08 570.63 149.3 569.78 147.77C569.327 147.14 568.757 146.603 568.1 146.19C565.24 143.87 564.84 139.73 564.65 136.05C564.41 131.28 564.22 126.29 566.26 121.97C567.14 120.13 568.43 118.34 568.33 116.31C568.21 114.11 566.48 112.31 566.15 110.13C565.58 106.48 568.9 103.57 571.6 101.05C576.783 96.0953 580.662 89.9377 582.893 83.1238C585.124 76.3098 585.638 69.0505 584.39 61.99C583.14 55.31 589.78 48.67 591.32 42.04C591.515 40.7324 591.868 39.4531 592.37 38.23C594.43 34.23 600.3 34.51 603.88 31.8C606.18 30.06 607.88 26.92 610.76 26.94C611.866 27.0512 612.942 27.3701 613.93 27.88C617.321 29.2716 621.02 29.7375 624.65 29.23C624.96 37.32 625.31 45.6 628.31 53.12C631.43 60.95 637.19 67.38 642.08 74.24C646.97 81.1 651.23 89.1 650.57 97.51C653.08 98.25 655.32 95.24 655.08 92.64C654.84 90.04 653.08 87.86 651.85 85.58C649.4 81.22 648.5 76.18 647.53 71.27C644.53 56.07 640.46 40.95 633.59 27.06C631.1 22.06 628.23 17.11 626.85 11.66C626.12 8.76003 625.04 4.99003 622.05 4.84003C621.244 4.86174 620.446 4.99984 619.68 5.25003C613.02 6.91003 606.28 3.49003 599.51 2.42003C590.6 1.02003 581.62 3.71003 573.01 6.42003C569.64 7.42003 566.19 8.55003 563.46 10.78C559.19 14.28 557.46 19.98 553.83 24.17C550.73 27.79 546.38 30.17 543.38 33.88C540.24 37.74 538.79 42.73 535.8 46.71C529.8 54.71 518.35 57.61 513.19 66.21C508.03 74.81 502.97 83.29 498.58 92.21C494.19 101.13 486.44 108.42 485.1 118.15C484.55 122.15 484.72 127.07 481.24 129.1C479.85 129.91 478.09 130.1 476.89 131.1C475.28 132.55 475.32 135.02 475.27 137.19C475.118 143.425 473.22 149.491 469.79 154.7C469.051 155.954 468.043 157.03 466.84 157.85C465.29 158.79 463.4 158.97 461.76 159.73C456.57 162.14 455.76 169.03 455.62 174.73L455.27 192.22C455.185 193.088 455.301 193.964 455.61 194.78C456.26 196.16 457.86 196.78 459.33 197.19C475.65 201.8 493.51 197.19 509.8 201.91C515.61 203.58 521.04 206.38 526.8 208.17C536.8 211.26 547.4 211.25 557.8 210.84C559.138 210.895 560.47 210.624 561.68 210.05C562.244 209.728 562.678 209.219 562.904 208.61C563.131 208.001 563.137 207.332 562.92 206.72Z" fill="#8D68AD"/>
<path id="Vector_67" opacity="0.1" d="M513.79 111.91C511.47 112.81 509.41 114.35 507.02 115.03C505.48 115.47 503.85 115.54 502.29 115.93C498.796 116.982 495.777 119.216 493.75 122.25C491.755 125.272 490.12 128.518 488.88 131.92C492.897 130.252 497.175 129.298 501.52 129.1C503.896 129.133 506.271 128.969 508.62 128.61C511.503 127.837 514.217 126.531 516.62 124.76C519.28 122.99 527.78 118.52 527.14 114.83C526.41 110.09 516.79 110.74 513.79 111.91Z" fill="black"/>
<path id="Vector_68" opacity="0.1" d="M497.32 145.73C495.019 146.032 492.783 146.708 490.7 147.73C486.48 150.05 484.09 154.6 481.93 158.91C490.011 153.868 499.084 150.624 508.53 149.4C515.1 148.55 523.53 149.4 529.53 146.29C526.96 140.89 502.59 144.78 497.32 145.73Z" fill="black"/>
<path id="Vector_69" opacity="0.1" d="M562.79 23.45C566.99 24 569.91 27.94 571.54 31.85C573.17 35.76 574.09 40.08 576.74 43.39C577.862 40.0546 577.838 36.4398 576.67 33.12C576.425 32.61 576.321 32.0437 576.37 31.48C576.508 30.983 576.794 30.5399 577.19 30.21C579.51 27.95 592.59 23.27 584.11 22.78C577.07 22.36 570.12 24.4 562.79 23.45Z" fill="black"/>
<path id="Vector_70" d="M402.92 191.67C407.21 182.67 415.31 175.97 424.21 171.49C433.11 167.01 442.86 164.57 452.52 162.14C455.048 161.39 457.664 160.973 460.3 160.9C464.66 160.97 468.77 162.9 472.5 165.17C477.141 168.108 481.606 171.317 485.87 174.78L497.87 184.12C509.63 193.28 521.63 202.71 529.53 215.35C520.43 215.9 511.96 211.12 503.11 208.89C494.26 206.66 485.26 206.98 476.26 207.29L454.26 208.04C449.468 208.067 444.688 208.502 439.97 209.34C436.718 210.085 433.513 211.02 430.37 212.14L414.12 217.57C407.45 219.8 402.12 221.57 400.32 213.49C398.768 206.128 399.682 198.461 402.92 191.67Z" fill="#8D68AD"/>
<path id="Vector_71" opacity="0.1" d="M402.92 191.67C407.21 182.67 415.31 175.97 424.21 171.49C433.11 167.01 442.86 164.57 452.52 162.14C455.048 161.39 457.664 160.973 460.3 160.9C464.66 160.97 468.77 162.9 472.5 165.17C477.141 168.108 481.606 171.317 485.87 174.78L497.87 184.12C509.63 193.28 521.63 202.71 529.53 215.35C520.43 215.9 511.96 211.12 503.11 208.89C494.26 206.66 485.26 206.98 476.26 207.29L454.26 208.04C449.468 208.067 444.688 208.502 439.97 209.34C436.718 210.085 433.513 211.02 430.37 212.14L414.12 217.57C407.45 219.8 402.12 221.57 400.32 213.49C398.768 206.128 399.682 198.461 402.92 191.67Z" fill="black"/>
</g>
</g>
<defs>
<linearGradient id="paint0_linear" x1="1045" y1="87.001" x2="8.50096" y2="638.502" gradientUnits="userSpaceOnUse">
<stop stop-color="#DCE9EF"/>
<stop offset="1" stop-color="#D6ACE3"/>
</linearGradient>
<clipPath id="clip0">
<rect width="1131.57" height="739.14" fill="white"/>
</clipPath>
</defs>
</svg>
